/* XPM */
static char *_81301ad9ac04dd5a023ef1e916da389Q2zhVTypuzuiOQur[] = {
/* columns rows colors chars-per-pixel */
"16 16 177 2 ",
"   c #582C0F",
".  c #5A3113",
"X  c #583515",
"o  c #5E3B1B",
"O  c #5F3C1C",
"+  c #60391A",
"@  c #603C1C",
"#  c #613D1D",
"$  c #633C1D",
"%  c #633F1F",
"&  c #653C1E",
"*  c #673E20",
"=  c #663F20",
"-  c #683F21",
";  c #654222",
":  c #674323",
">  c #694223",
",  c #6D4124",
"<  c #684424",
"1  c #694525",
"2  c #6B4425",
"3  c #6A4626",
"4  c #6A4727",
"5  c #6B4727",
"6  c #6D4426",
"7  c #6E4527",
"8  c #6E4728",
"9  c #6C4828",
"0  c #6F4829",
"q  c #6D4A2A",
"w  c #6F4C2C",
"e  c #704729",
"r  c #734A2C",
"t  c #744B2D",
"y  c #714D2D",
"u  c #734C2D",
"i  c #754C2E",
"p  c #744D2E",
"a  c #764D2F",
"s  c #754E2F",
"d  c #774E30",
"f  c #764F30",
"g  c #745030",
"h  c #755131",
"j  c #775333",
"k  c #795032",
"l  c #7A5334",
"z  c #7C5335",
"x  c #785535",
"c  c #7B5435",
"v  c #795636",
"b  c #7A5737",
"n  c #7B5737",
"m  c #7C5536",
"M  c #7E5537",
"N  c #7E5738",
"B  c #7F5839",
"V  c #7E5A3A",
"C  c #7E5B3B",
"Z  c #7F5B3B",
"A  c #7F5C3C",
"S  c #805739",
"D  c #81583A",
"F  c #80593A",
"G  c #815A3B",
"H  c #825B3C",
"J  c #845B3D",
"K  c #865A3D",
"L  c #805C3C",
"P  c #835C3D",
"I  c #815E3E",
"U  c #825E3E",
"Y  c #845D3E",
"T  c #865D3F",
"R  c #855E3F",
"E  c #885C3F",
"W  c #865F40",
"Q  c #885F41",
"!  c #8B5F42",
"~  c #846141",
"^  c #856141",
"/  c #876343",
"(  c #876444",
")  c #886142",
"_  c #8A6143",
"`  c #896243",
"'  c #8A6344",
"]  c #886545",
"[  c #8B6445",
"{  c #8A6646",
"}  c #8B6747",
"|  c #8C6546",
" . c #8E6547",
".. c #8D6647",
"X. c #8B6848",
"o. c #8C6848",
"O. c #8D6949",
"+. c #8F6849",
"@. c #8D6A4A",
"#. c #8E6A4A",
"$. c #8E6B4B",
"%. c #916548",
"&. c #906749",
"*. c #926649",
"=. c #91684A",
"-. c #92694B",
";. c #936A4C",
":. c #926B4C",
">. c #95694C",
",. c #906C4C",
"<. c #936C4D",
"1. c #916E4E",
"2. c #926E4E",
"3. c #946D4E",
"4. c #966D4F",
"5. c #956E4F",
"6. c #986C4F",
"7. c #976E50",
"8. c #966F50",
"9. c #947050",
"0. c #947151",
"q. c #977051",
"w. c #967252",
"e. c #977353",
"r. c #987152",
"t. c #9A7153",
"y. c #9C7053",
"u. c #9B7254",
"i. c #9A7354",
"p. c #9C7355",
"a. c #987454",
"s. c #997555",
"d. c #9B7455",
"f. c #9A7656",
"g. c #9A7757",
"h. c #9B7757",
"j. c #9D7456",
"k. c #9C7556",
"l. c #9D7A5A",
"z. c #9E7A5A",
"x. c #A07457",
"c. c #A07759",
"v. c #A27659",
"b. c #A1785A",
"n. c #A0795A",
"m. c #A2795B",
"M. c #A17A5B",
"N. c #A27B5C",
"B. c #A5795C",
"V. c #A07C5C",
"C. c #A17D5D",
"Z. c #A37C5D",
"A. c #A47D5E",
"S. c #A57E5F",
"D. c #A77E60",
"F. c #A67F60",
"G. c #A87F61",
"H. c #A58161",
"J. c #A58262",
"K. c #A68262",
"L. c #A88162",
"P. c #A98263",
"I. c #AA8364",
"U. c #A88464",
"Y. c #A98565",
"T. c #AB8465",
"R. c #A98666",
"E. c #AA8767",
"W. c #AC8566",
"Q. c #AF8869",
"!. c #AF8C6C",
"~. c #B18A6B",
"^. c #B28B6C",
"/. c #B68F70",
"(. c #B39070",
"). c #B99072",
"_. c #BA9374",
/* pixels */
"$.( (.X.j 5.V $.l a.d & -.j.%.v.",
"~ E.$.b < z.H.V u.L.=.m j.6.*., ",
"H.$.X 4 E.I r.S.T.a.u.K E z B._ ",
"1.$.E.I / < f 8./.R u.u.L.p.u.E ",
"$.y a.H.9 o.e l H =  .W _ -.e D ",
"4 j m ~ y ~ R I.u f 8.e . d 7 S.",
"f.9 $ I L.9 z ~.I.8.L.r.<. .E 5.",
"s 4 W.W.s  .L.l +.9 ~ M.N.2 D H ",
"q.M.F ) 5.H F > m R u D / l @ H ",
"[ Y s m u q.Q.F j.L.F + D H.w.{ ",
"r  .=.L.M.;.[ ~.Z._.H./ a.z.#.V ",
"%.R j.).r.d. .[ [ <.o.o.I.g.l @ ",
"-.x.v.F & B.I.F u r.1.< O V z.!.",
"K %.E u u m / ;.H z.1.A x g.0.] ",
"6.  2 j. .& ) < N.H.V I ; v q v ",
"E -.M.6.5.k N.N a.] % ( V l.w O "
};