/* XPM */
static char *_87acae3de8b42beeb119dc9ef265d4bZal83sWnHASS2vGi[] = {
/* columns rows colors chars-per-pixel */
"32 32 212 2 ",
"   c None",
".  c #523215",
"X  c #543315",
"o  c #543415",
"O  c #563515",
"+  c #563615",
"@  c #573715",
"#  c #583615",
"$  c #583715",
"%  c #553815",
"&  c #553816",
"*  c #593B15",
"=  c #583A16",
"-  c #593A16",
";  c #593B16",
":  c #593D16",
">  c #5A3D16",
",  c #5B3D16",
"<  c #5B3E16",
"1  c #5A3F17",
"2  c #5B3F17",
"3  c #5B4017",
"4  c #5C4017",
"5  c #5C4217",
"6  c #5C4317",
"7  c #5D4317",
"8  c #5D4417",
"9  c #5D4218",
"0  c #5C4318",
"q  c #5D4318",
"w  c #5D4319",
"e  c #5D4418",
"r  c #5E4419",
"t  c #5E4519",
"y  c #5F4519",
"u  c #5F4619",
"i  c #565112",
"p  c #575112",
"a  c #575212",
"s  c #575213",
"d  c #535715",
"f  c #585213",
"g  c #535815",
"h  c #545815",
"j  c #555815",
"k  c #545915",
"l  c #555915",
"z  c #545816",
"x  c #555816",
"c  c #545916",
"v  c #555916",
"b  c #555917",
"n  c #565916",
"m  c #565917",
"M  c #555A17",
"N  c #565A16",
"B  c #575B16",
"V  c #565A17",
"C  c #575A17",
"Z  c #575B17",
"A  c #575C17",
"S  c #585B17",
"D  c #585C17",
"F  c #595C17",
"G  c #585D17",
"H  c #595D17",
"J  c #5A5E17",
"K  c #5B5E17",
"L  c #5C5E17",
"P  c #595C18",
"I  c #5A5D18",
"U  c #595E18",
"Y  c #5B5E18",
"T  c #5C5F18",
"R  c #604519",
"E  c #604619",
"W  c #614719",
"Q  c #624819",
"!  c #624919",
"~  c #634919",
"^  c #63491A",
"/  c #644A1A",
"(  c #644B1A",
")  c #654B1A",
"_  c #664C1A",
"`  c #674C1A",
"'  c #674D1A",
"]  c #674D1B",
"[  c #625819",
"{  c #635919",
"}  c #655B19",
"|  c #665C19",
" . c #675D1A",
".. c #685E1A",
"X. c #5D6018",
"o. c #606218",
"O. c #606318",
"+. c #616318",
"@. c #626418",
"#. c #626519",
"$. c #636519",
"%. c #636619",
"&. c #67691A",
"*. c #67691B",
"=. c #676A1A",
"-. c #68691B",
";. c #686B1A",
":. c #686A1B",
">. c #696A1B",
",. c #696B1B",
"<. c #696C1A",
"1. c #6A6C1A",
"2. c #6A6D1B",
"3. c #6B6D1B",
"4. c #6B6E1B",
"5. c #6C6E1B",
"6. c #6C6F1B",
"7. c #6D6F1B",
"8. c #6E6F1B",
"9. c #6C6D1D",
"0. c #6C6E1D",
"q. c #6D6F1D",
"w. c #766916",
"e. c #776916",
"r. c #6D701B",
"t. c #6E701B",
"y. c #6E711B",
"u. c #6E711C",
"i. c #6F711C",
"p. c #6F721C",
"a. c #70711B",
"s. c #70721C",
"d. c #70731C",
"f. c #71731C",
"g. c #72731D",
"h. c #73751E",
"j. c #74761D",
"k. c #75761D",
"l. c #75771D",
"z. c #74751E",
"x. c #75751E",
"c. c #76761E",
"v. c #77761E",
"b. c #76771E",
"n. c #77771E",
"m. c #7E731D",
"M. c #7F731D",
"N. c #7F731E",
"B. c #78771F",
"V. c #7F741E",
"C. c #77781E",
"Z. c #6F6F21",
"A. c #6F7021",
"S. c #707021",
"D. c #777721",
"F. c #767522",
"G. c #767622",
"H. c #777622",
"J. c #777722",
"K. c #787722",
"L. c #787821",
"P. c #797822",
"I. c #7A7922",
"U. c #797A23",
"Y. c #7B7A23",
"T. c #7D7C22",
"R. c #7D7D22",
"E. c #7E7D22",
"W. c #7F7E22",
"Q. c #7F7E23",
"!. c #7F7F23",
"~. c #7B7B25",
"^. c #797928",
"/. c #7A7928",
"(. c #7A7A28",
"). c #7B7A28",
"_. c #7C7A29",
"`. c #80741E",
"'. c #807F23",
"]. c #818023",
"[. c #828123",
"{. c #838123",
"}. c #838223",
"|. c #838224",
" X c #848224",
".X c #848324",
"XX c #878429",
"oX c #87842D",
"OX c #888429",
"+X c #888529",
"@X c #89862C",
"#X c #89872C",
"$X c #89862D",
"%X c #89872D",
"&X c #8A862D",
"*X c #8A872D",
"=X c #88842E",
"-X c #89852F",
";X c #8A872E",
":X c #888331",
">X c #888431",
",X c #898432",
"<X c #898532",
"1X c #8A8532",
"2X c #8A8632",
"3X c #8B8632",
"4X c #8C8733",
"5X c #8D8733",
"6X c #8D8833",
"7X c #8E8833",
"8X c #8E8933",
"9X c #8F8934",
/* pixels */
"                                                                ",
"                                                                ",
"                                                                ",
"                            _ ) )                               ",
"                          ` 4X4X4X)                             ",
"                  ` ` `   ` 4X4X4X)   ! !                       ",
"                ` 4X4X9X` .X4X4X{.{.! J.H.!                     ",
"                ` 9X8X6X.X.X.X.X{.{.P.J.H.H.!                   ",
"          ) _ _ .X.X.X.X.X.X.X.X.X.XK.K.J.J.!                   ",
"        ) 4X4X6X6X=X#Xl..X9X6X8X'..X'.K.J...| E E y             ",
"        ) 4X6X6X6X#X=XC.l.9X8X8X8X.X'.J...| | u.0.0.y           ",
"          _ 6X6XOXXXl.l.l.l.9X6X4X.Xl.z.l.g.| 5.0.0.y           ",
"            _ {..Xe.e.*X*XC.l.6X9Xv.v.l.{.!.!.} 0.E             ",
"        ) ) {.{.|.e..X#X*X#Xl.C.B.v.B.4X4X1X!.5.E               ",
"      ! oX=X1X6X{.|..X=X=X*X`.V.`.B.l.4X1X1Xa.t.0.y w           ",
"      ! 1X1X4X4X{.{.6X6X}.V.V.V.M.4X4X;X1Xd.t.5.5.4.2.y         ",
"      ! 1X4X6Xd.d.6X6X6X{.{.{.m.4X4X4X'.!.T.T.5.4.4.1.N 3       ",
"        ! P.P.u.d.4X4X4.].{.{.{.4X1X1X!.!.!.!.4.5.1.N N 8       ",
"      ! P.~.P.4X4X4X=.=.4X4X6X{.'.'.'.!.:X1XT.4.[ [ g w         ",
"    E =.D.D.P.1X1X1X=.=.1X4X1Xu.'.'.5.=X:X:X5.4.N N 6           ",
"    y 1.:.:.:.:X1Xt.=.=.1X1Xu.u.a.5.t.1X:X4.2.0.N g d 6         ",
"    w Z.Z.1.$.$.r.t.t.t.t.t.| t.t.5.5.A N 4.2.z g N g d 6       ",
"    w Z.A.=.$.4.r.5.r.r.t.r.K K t.5.5.f a b b N K K K K 6       ",
"      w 3 $.X.(.(.~.X.4.4.U A K 5.5.f a a N N z K K K 3         ",
"          w _.^.(.(.T [ | S K N [ a a a $.$.N N K K :           ",
"          6 ^.^.(.: T I P S S S & b N $.$.$.& - - :             ",
"            - , :   - K S N + &   . N $.$.+                     ",
"                      - # +         . . +                       ",
"                                                                ",
"                                                                ",
"                                                                ",
"                                                                "
};